<?xml version="1.0" standalone="no"?>
<!DOCTYPE svg PUBLIC "-//W3C//DTD SVG 20010904//EN"
 "http://www.w3.org/TR/2001/REC-SVG-20010904/DTD/svg10.dtd">
<svg version="1.0" xmlns="http://www.w3.org/2000/svg"
 width="348.000000pt" height="113.000000pt" viewBox="0 0 348.000000 113.000000"
 preserveAspectRatio="xMidYMid meet">
<metadata>
Created by potrace 1.10, written by Peter Selinger 2001-2011
</metadata>
<g transform="translate(0.000000,113.000000) scale(0.100000,-0.100000)"
fill="#ffffff" stroke="none">
<path d="M755 1047 c-11 -7 -74 -37 -140 -67 -66 -29 -156 -70 -200 -90 -44
-21 -104 -48 -132 -61 -50 -23 -53 -26 -53 -61 l0 -38 280 0 280 0 0 165 c0
91 -3 165 -8 165 -4 0 -16 -6 -27 -13z m-5 -146 c0 -62 4 -91 13 -94 7 -3 5
-6 -6 -6 -9 -1 -16 -7 -15 -13 2 -10 -49 -14 -225 -16 -153 -1 -226 1 -222 8
3 5 14 10 23 11 11 1 8 4 -8 9 -23 7 -22 8 10 9 20 1 41 6 46 11 16 16 347
169 367 169 15 1 17 -10 17 -88z"/>
<path d="M820 566 l0 -496 23 0 c56 0 148 24 216 57 132 64 227 181 265 330
36 139 2 285 -96 411 -76 99 -216 175 -344 188 l-63 7 -1 -497z m108 460 c52
-27 120 -121 155 -216 4 -12 6 -11 6 3 1 18 -33 94 -63 140 -17 25 -17 27 -2
27 50 0 243 -173 213 -192 -6 -4 -7 -8 -2 -8 18 0 35 -38 60 -130 l24 -90
-100 0 -99 0 2 -47 c1 -43 2 -44 5 -11 5 46 22 53 110 43 l65 -7 -6 -39 c-4
-22 -13 -59 -21 -82 -8 -23 -15 -50 -15 -59 0 -15 -13 -18 -86 -20 l-86 -3
-19 -48 c-46 -116 -112 -183 -174 -175 l-30 3 -3 99 c-2 72 1 102 10 107 9 6
9 9 -3 14 -14 5 -15 21 -11 103 2 53 7 99 9 102 3 3 59 8 126 11 l122 5 -135
2 -135 2 3 99 c2 64 8 103 16 110 7 6 55 12 107 14 l94 3 -110 2 -110 2 4 118
c4 137 14 152 79 118z m279 -704 c26 -17 -66 -110 -149 -153 -21 -11 -38 -16
-38 -11 0 18 71 148 87 160 19 13 81 16 100 4z"/>
<path d="M1091 783 c0 -5 4 -17 8 -28 7 -17 8 -17 13 8 4 19 1 27 -8 27 -8 0
-14 -3 -13 -7z"/>
<path d="M1470 560 l0 -360 35 0 35 0 0 140 0 140 75 0 c60 0 75 -3 75 -15 0
-8 5 -15 10 -15 6 0 10 -9 10 -20 0 -12 7 -20 16 -20 10 0 14 -6 10 -15 -3 -8
1 -21 9 -29 8 -8 15 -22 15 -31 0 -9 11 -27 25 -41 14 -14 25 -36 25 -49 0
-22 5 -25 38 -26 37 -1 37 -1 7 -9 -30 -8 -30 -8 8 -9 31 -1 37 2 37 19 0 11
-4 20 -10 20 -5 0 -10 5 -10 11 0 6 -7 17 -15 25 -8 9 -15 24 -15 35 0 11 -11
31 -25 45 -14 14 -25 35 -25 47 0 13 -9 29 -20 37 -11 8 -20 20 -20 27 0 7 9
13 20 13 11 0 20 5 20 10 0 6 8 10 18 10 14 0 15 2 2 10 -12 8 -11 10 7 10 19
0 24 7 29 40 4 22 10 40 15 40 14 0 11 199 -3 216 -7 8 -19 21 -25 29 -7 7
-13 18 -13 24 0 6 -7 11 -15 11 -8 0 -15 5 -15 10 0 6 -62 11 -162 12 l-163 2
135 6 135 6 -137 2 -138 2 0 -360z m316 256 c8 -8 17 -29 20 -45 4 -17 10 -31
15 -31 5 0 9 -16 9 -35 0 -19 -4 -35 -10 -35 -5 0 -10 -12 -10 -27 0 -48 -11
-73 -31 -73 -11 0 -19 -4 -19 -10 0 -6 -43 -10 -110 -10 l-110 0 0 140 0 140
116 0 c87 0 119 -4 130 -14z m-252 -295 c3 -5 -1 -14 -9 -21 -13 -10 -15 -9
-15 9 0 21 14 28 24 12z m206 -21 c0 -5 -7 -10 -15 -10 -8 0 -15 5 -15 10 0 6
7 10 15 10 8 0 15 -4 15 -10z"/>
<path d="M1980 560 l0 -360 200 0 200 0 0 45 0 45 -170 0 -170 0 0 115 0 115
145 0 145 0 0 40 0 40 -145 0 -145 0 0 115 0 115 170 0 170 0 0 45 0 45 -200
0 -200 0 0 -360z m298 343 c-54 -2 -142 -2 -195 0 -54 1 -10 3 97 3 107 0 151
-2 98 -3z m0 -690 c-54 -2 -142 -2 -195 0 -54 1 -10 3 97 3 107 0 151 -2 98
-3z"/>
<path d="M2630 910 c0 -5 -12 -10 -27 -10 -22 0 -25 -2 -13 -10 12 -8 9 -10
-12 -10 -16 0 -28 -5 -28 -11 0 -14 -25 -39 -39 -39 -6 0 -11 -11 -11 -25 0
-14 -4 -25 -10 -25 -5 0 -10 -10 -10 -22 0 -17 -3 -19 -9 -10 -9 15 -21 -38
-21 -98 0 -26 -3 -31 -10 -20 -7 10 -10 -11 -10 -70 0 -59 3 -80 10 -70 7 11
10 6 10 -20 0 -60 12 -113 21 -98 6 9 9 7 9 -9 0 -13 5 -23 10 -23 6 0 10 -7
10 -15 0 -8 11 -25 25 -39 14 -14 25 -30 25 -36 0 -5 7 -10 15 -10 8 0 15 -4
15 -10 0 -5 11 -10 25 -10 14 0 25 -4 25 -10 0 -6 35 -10 86 -10 54 0 83 4 79
10 -4 6 5 10 19 10 14 0 26 5 26 10 0 6 7 10 15 10 8 0 15 5 15 11 0 11 25 39
35 39 13 0 35 29 35 47 0 10 9 25 20 33 13 9 20 26 20 47 0 30 -3 33 -29 33
-28 0 -41 -14 -41 -46 0 -8 -11 -26 -25 -40 -14 -14 -25 -31 -25 -39 0 -8 -9
-15 -20 -15 -11 0 -20 -4 -20 -10 0 -5 -11 -10 -25 -10 -14 0 -25 -4 -25 -10
0 -6 -27 -10 -60 -10 -33 0 -60 4 -60 10 0 6 -9 10 -21 10 -22 0 -49 22 -49
39 0 6 -7 11 -15 11 -8 0 -15 9 -15 20 0 11 -4 20 -10 20 -5 0 -10 6 -10 14 0
8 -6 16 -12 19 -10 3 -13 41 -13 147 0 106 3 144 13 148 6 2 12 13 12 24 0 21
22 48 39 48 6 0 11 5 11 11 0 17 27 39 49 39 12 0 21 5 21 10 0 6 31 10 73 10
50 0 67 -3 57 -10 -12 -8 -10 -10 8 -10 25 0 52 -21 52 -39 0 -6 5 -11 10 -11
16 0 60 -47 60 -64 0 -32 13 -46 41 -46 26 0 29 3 29 31 0 22 -9 40 -30 59
-16 15 -30 37 -30 49 0 12 -5 21 -11 21 -14 0 -39 25 -39 39 0 6 -7 11 -15 11
-8 0 -15 5 -15 10 0 6 -12 10 -26 10 -14 0 -23 4 -19 10 4 6 -25 10 -79 10
-51 0 -86 -4 -86 -10z"/>
<path d="M3060 560 l0 -360 195 0 195 0 0 45 0 45 -160 0 -160 0 0 115 0 115
135 0 135 0 0 40 0 40 -135 0 -135 0 0 115 0 115 160 0 160 0 0 45 0 45 -195
0 -195 0 0 -360z m293 343 c-51 -2 -136 -2 -190 0 -54 1 -12 3 92 3 105 0 149
-2 98 -3z m-227 -334 c3 -6 -1 -18 -10 -27 -15 -15 -16 -14 -16 11 0 27 13 36
26 16z m227 -356 c-51 -2 -136 -2 -190 0 -54 1 -12 3 92 3 105 0 149 -2 98 -3z"/>
<path d="M280 470 l0 -230 65 0 65 0 0 230 0 230 -65 0 -65 0 0 -230z m90 0
l0 -190 -25 0 -25 0 0 190 0 190 25 0 25 0 0 -190z"/>
<path d="M570 470 l0 -230 65 0 65 0 0 230 0 230 -65 0 -65 0 0 -230z m90 0
l0 -190 -25 0 -25 0 0 190 0 190 25 0 25 0 0 -190z"/>
<path d="M230 190 c0 -20 7 -20 280 -20 273 0 280 0 280 20 0 20 -7 20 -280
20 -273 0 -280 0 -280 -20z"/>
<path d="M160 105 l0 -35 315 0 315 0 0 35 0 35 -315 0 -315 0 0 -35z"/>
</g>
</svg>
