<?xml version="1.0" standalone="no"?>
<!DOCTYPE svg PUBLIC "-//W3C//DTD SVG 20010904//EN"
 "http://www.w3.org/TR/2001/REC-SVG-20010904/DTD/svg10.dtd">
<svg version="1.0" xmlns="http://www.w3.org/2000/svg"
 width="152.000000pt" height="152.000000pt" viewBox="0 0 152.000000 152.000000"
 preserveAspectRatio="xMidYMid meet">
<metadata>
Created by potrace 1.10, written by Peter Selinger 2001-2011
</metadata>
<g transform="translate(0.000000,152.000000) scale(0.100000,-0.100000)"
fill="#03476e" stroke="none">
<path d="M755 1437 c-11 -7 -74 -37 -140 -67 -66 -29 -156 -70 -200 -90 -44
-21 -104 -48 -132 -61 -50 -23 -53 -26 -53 -61 l0 -38 280 0 280 0 0 165 c0
91 -3 165 -8 165 -4 0 -16 -6 -27 -13z m15 -123 c0 -91 -1 -96 -22 -102 -21
-6 -21 -7 7 -13 17 -4 -89 -6 -235 -6 l-265 1 235 6 235 6 -200 2 -200 2 35
18 c19 10 69 33 110 52 41 18 113 50 159 72 46 23 96 44 110 48 14 5 27 9 29
9 1 1 2 -42 2 -95z m0 -151 c0 -17 -19 -18 -260 -19 -244 0 -260 1 -260 18 0
17 16 18 260 18 241 0 260 -1 260 -17z"/>
<path d="M820 956 l0 -496 23 0 c56 0 148 24 216 57 132 64 227 181 265 330
36 139 2 285 -96 411 -77 99 -216 175 -345 188 l-63 7 0 -497z m101 464 c47
-25 112 -105 145 -181 13 -30 23 -47 24 -38 0 28 -41 112 -78 158 -33 40 -34
43 -11 36 82 -26 172 -94 234 -177 l27 -38 -86 0 c-47 0 -86 -4 -86 -9 0 -4 5
-21 10 -37 6 -16 14 -63 20 -104 l9 -75 -5 82 c-2 46 -9 94 -14 108 l-10 25
75 0 c94 0 102 -8 131 -130 l21 -90 -249 0 c-248 0 -249 0 -238 20 6 12 10 60
9 108 l-2 87 89 3 c146 4 157 9 26 10 l-124 2 3 123 c4 147 8 153 80 117z
m199 -513 c0 -35 -13 -116 -25 -152 -6 -19 -6 -19 6 -1 6 11 17 56 23 100 l12
81 88 3 89 3 -6 -48 c-4 -26 -15 -74 -24 -105 l-18 -58 -88 0 c-86 0 -88 0
-98 -27 -45 -124 -119 -209 -184 -215 l-40 -3 -3 113 c-2 72 1 112 8 112 5 0
10 5 10 10 0 6 -6 10 -13 10 -10 0 -12 21 -9 93 2 50 5 97 7 103 2 7 49 12
134 13 l131 2 0 -34z m115 -197 c10 -16 -124 -143 -178 -168 -26 -12 -51 -22
-57 -22 -5 0 5 21 24 48 19 26 42 67 52 92 10 25 22 48 28 52 17 12 124 9 131
-2z"/>
<path d="M280 860 l0 -230 65 0 65 0 0 230 0 230 -65 0 -65 0 0 -230z m87 202
c9 -6 13 -65 15 -207 l3 -200 -42 -3 -43 -3 0 205 c0 154 3 206 13 209 19 8
41 8 54 -1z"/>
<path d="M570 860 l0 -230 65 0 65 0 0 230 0 230 -65 0 -65 0 0 -230z m88 202
c9 -6 13 -61 15 -208 l2 -199 -42 -3 -43 -3 0 205 c0 204 0 205 23 209 12 2
24 5 27 5 3 1 11 -2 18 -6z"/>
<path d="M230 580 c0 -20 7 -20 280 -20 273 0 280 0 280 20 0 20 -7 20 -280
20 -273 0 -280 0 -280 -20z"/>
<path d="M160 495 l0 -35 315 0 315 0 0 35 0 35 -315 0 -315 0 0 -35z m580 0
c-3 -5 -21 -9 -40 -9 -19 1 -143 3 -275 5 -230 3 -234 3 -100 9 210 9 421 7
415 -5z"/>
<path d="M170 233 c0 -146 1 -153 20 -153 18 0 20 7 20 60 l0 60 43 0 c42 0
45 -3 87 -60 26 -36 51 -60 62 -60 25 0 23 4 -21 62 l-39 51 32 22 c28 19 31
25 31 74 0 77 -23 92 -144 94 l-91 2 0 -152z m195 93 c19 -29 11 -72 -15 -86
-10 -6 -46 -10 -79 -10 l-61 0 0 60 0 60 70 0 c62 0 71 -2 85 -24z"/>
<path d="M470 235 l0 -150 115 0 c103 0 115 2 115 18 0 15 -11 17 -100 17
l-100 0 0 50 0 50 85 0 c69 0 85 3 85 15 0 12 -16 15 -85 15 l-85 0 0 50 0 50
100 0 c89 0 100 2 100 18 0 15 -12 17 -115 17 l-115 0 0 -150z"/>
<path d="M813 369 c-56 -27 -88 -91 -79 -152 17 -107 128 -166 231 -123 39 17
85 61 85 82 0 23 -29 15 -47 -12 -32 -50 -108 -67 -167 -39 -87 42 -89 178 -2
219 19 9 46 16 61 16 37 0 93 -28 112 -56 16 -25 43 -32 43 -11 -1 18 -33 53
-71 76 -44 27 -111 27 -166 0z"/>
<path d="M1100 235 l0 -150 115 0 c103 0 115 2 115 18 0 15 -11 17 -95 17
l-95 0 0 50 0 50 80 0 c64 0 80 3 80 15 0 12 -16 15 -80 15 l-80 0 0 50 0 50
95 0 c84 0 95 2 95 18 0 15 -12 17 -115 17 l-115 0 0 -150z"/>
</g>
</svg>
