<svg xmlns="http://www.w3.org/2000/svg">
  <path d="M42.5 0C19 0 0 19 0 42.5S19 85 42.5 85 85 66 85 42.5 66 0 42.5 0zm-.2 66.3s-2 1.3-3.3 1.3c-.1.1-.2.1-.2.1v-.1c-.3 0-.6-.1-.9-.1l-.4-.1c-2.4-.6-3.6-2.9-3-5.3l3.3-13.2 1.5-6c1.4-5.5-4.4 1.2-5.5-1.4-.8-1.7 4.5-5.2 8.3-7.9 0 0 2-1.3 3.3-1.3.1-.1.2-.1.2-.1v.1c.3 0 .6.1.9.1l.4.1c2.4.6 3.8 3 3.2 5.3L46.8 51l-1.5 6c-1.4 5.5 4.3-1.2 5.4 1.4.8 1.7-4.6 5.2-8.4 7.9zM50.6 25c-.8 3.3-4.2 5.3-7.4 4.5-3.3-.8-5.3-4.2-4.5-7.4s4.2-5.3 7.4-4.5c3.3.7 5.3 4.1 4.5 7.4z" fill="#027caf"/>
</svg>